<svg width="159" height="41" viewBox="0 0 159 41" fill="none" xmlns="http://www.w3.org/2000/svg">
<path d="M16.1551 15.73C16.1551 12.9241 18.4508 10.6284 21.2567 10.6284C22.192 10.6284 23.0423 10.8835 23.8075 11.3086L38.092 19.6413C40.5578 21.0867 41.323 24.1477 39.9626 26.6134C39.5374 27.3787 38.8572 28.0589 38.092 28.484L23.8925 36.7316C21.4268 38.1771 18.3658 37.3268 16.9203 34.861C16.4952 34.0958 16.2401 33.2455 16.2401 32.3102L16.1551 15.73Z" fill="url(#paint0_linear)"/>
<path d="M0 15.73C0 12.9241 2.29572 10.6284 5.1016 10.6284C6.0369 10.6284 6.88717 10.8835 7.65241 11.3086L21.9369 19.6413C24.4027 21.0867 25.1679 24.1477 23.8075 26.6134C23.3824 27.3787 22.7021 28.0589 21.9369 28.484L7.73744 36.7316C5.27166 38.1771 2.21069 37.3268 0.765235 34.861C0.340102 34.0958 0.0850319 33.2455 0.0850319 32.3102L0 15.73Z" fill="url(#paint1_linear)"/>
<path d="M52.7402 22.7912V32.0001H48.4337V7.21616H57.9149C60.6838 7.21616 62.8796 7.93675 64.5024 9.37795C66.1365 10.8191 66.9536 12.7256 66.9536 15.0973C66.9536 17.5258 66.1535 19.4152 64.5535 20.7656C62.9648 22.116 60.7349 22.7912 57.8638 22.7912H52.7402ZM52.7402 19.3358H57.9149C59.4469 19.3358 60.6157 18.9783 61.4214 18.2634C62.2271 17.5371 62.63 16.4931 62.63 15.1314C62.63 13.7923 62.2215 12.7256 61.4044 11.9312C60.5874 11.1255 59.4639 10.7113 58.0341 10.6886H52.7402V19.3358ZM81.5754 26.2297H71.975L69.9665 32.0001H65.4897L74.8518 7.21616H78.7157L88.0948 32.0001H83.601L81.5754 26.2297ZM73.1836 22.7572H80.3669L76.7752 12.4759L73.1836 22.7572ZM110.581 32.0001H106.274L95.227 14.4164V32.0001H90.9205V7.21616H95.227L106.308 24.8679V7.21616H110.581V32.0001ZM115.67 32.0001V7.21616H122.99C125.18 7.21616 127.12 7.70412 128.811 8.68005C130.514 9.65597 131.83 11.0404 132.76 12.8334C133.691 14.6264 134.156 16.6804 134.156 18.9953V20.238C134.156 22.587 133.685 24.6523 132.743 26.4339C131.813 28.2156 130.479 29.5887 128.743 30.5533C127.018 31.5178 125.038 32.0001 122.803 32.0001H115.67ZM119.977 10.6886V28.5617H122.786C125.044 28.5617 126.774 27.8581 127.977 26.451C129.192 25.0325 129.81 23.0012 129.833 20.3571V18.9783C129.833 16.2889 129.248 14.2349 128.079 12.8164C126.911 11.3979 125.214 10.6886 122.99 10.6886H119.977ZM151.944 26.2297H142.344L140.335 32.0001H135.858L145.221 7.21616H149.084L158.464 32.0001H153.97L151.944 26.2297ZM143.552 22.7572H150.736L147.144 12.4759L143.552 22.7572Z" fill="#1F1F1F"/>
<defs>
<linearGradient id="paint0_linear" x1="18.7809" y1="11.3387" x2="31.0703" y2="32.6246" gradientUnits="userSpaceOnUse">
<stop stop-color="#FF589B"/>
<stop offset="1" stop-color="#FF136F"/>
</linearGradient>
<linearGradient id="paint1_linear" x1="2.62579" y1="11.3387" x2="14.9152" y2="32.6246" gradientUnits="userSpaceOnUse">
<stop stop-color="#FF9C35"/>
<stop offset="1" stop-color="#FFD019"/>
</linearGradient>
</defs>
</svg>
